<svg width="21" height="21" viewBox="0 0 21 21" fill="none" xmlns="http://www.w3.org/2000/svg">
<path d="M8.9122 20.964C8.79022 20.964 8.668 20.9355 8.55805 20.8782C8.33094 20.76 8.19043 20.538 8.19043 20.2973V11.1191L0.731475 2.03354C0.56595 1.83177 0.538523 1.56088 0.660261 1.33421C0.782239 1.10732 1.03269 0.963989 1.30672 0.963989H19.8631C20.1373 0.963989 20.3875 1.10732 20.5095 1.33421C20.6315 1.56088 20.6041 1.83177 20.4383 2.03354L12.9793 11.1191V18.4242C12.9793 18.6573 12.8475 18.8733 12.6317 18.9942L9.28655 20.8673C9.17155 20.9315 9.04188 20.964 8.9122 20.964ZM2.75987 2.29732L9.48744 10.4922C9.58272 10.608 9.63396 10.7495 9.63396 10.8951V19.1138L11.5358 18.0489V10.8949C11.5358 10.7495 11.5873 10.608 11.6823 10.492L18.4099 2.29732H2.75987ZM12.2576 18.4242H12.26H12.2576Z" fill="black"/>
</svg>
