<svg width="20" height="20" viewBox="0 0 20 20" fill="none" xmlns="http://www.w3.org/2000/svg">
<path d="M19.7431 18.548L15.2365 14.0374C16.4519 12.5569 17.1778 10.6605 17.1778 8.5969C17.1778 3.85384 13.332 0.00799561 8.58891 0.00799561C3.84584 0.00799561 0 3.85384 0 8.5969C0 13.34 3.84584 17.1858 8.58891 17.1858C10.6607 17.1858 12.5612 16.4517 14.0457 15.2282L18.5522 19.7347C19.0783 20.216 19.5718 19.906 19.7431 19.7347C20.0856 19.3962 20.0856 18.8865 19.7431 18.548ZM1.67618 8.5969C1.67618 4.77961 4.77162 1.68418 8.58891 1.68418C12.4062 1.68418 15.5057 4.77961 15.5057 8.5969C15.5057 12.4142 12.4103 15.5096 8.59299 15.5096C4.77569 15.5096 1.67618 12.4142 1.67618 8.5969Z" fill="#F9A825"/>
</svg>
