<svg width="20" height="20" viewBox="0 0 20 20" fill="none" xmlns="http://www.w3.org/2000/svg">
<path fill-rule="evenodd" clip-rule="evenodd" d="M9.58333 0C14.8725 0 19.1667 4.29417 19.1667 9.58333C19.1667 14.8725 14.8725 19.1667 9.58333 19.1667C4.29417 19.1667 0 14.8725 0 9.58333C0 4.29417 4.29417 0 9.58333 0ZM9.58333 0.833333C14.4125 0.833333 18.3333 4.75417 18.3333 9.58333C18.3333 14.4125 14.4125 18.3333 9.58333 18.3333C4.75417 18.3333 0.833333 14.4125 0.833333 9.58333C0.833333 4.75417 4.75417 0.833333 9.58333 0.833333ZM4.16667 9.16667H15V10H4.16667V9.16667Z" fill="#F9A825"/>
</svg>
