<svg width="30" height="30" viewBox="0 0 30 30" fill="none" xmlns="http://www.w3.org/2000/svg">
<g id="three-horizontal-lines (1) 1">
<g id="Group">
<path id="Vector" fill-rule="evenodd" clip-rule="evenodd" d="M2.18262 0H27.8174C29.0186 0 30 1.2569 30 2.79521C30 4.33351 29.0186 5.59041 27.8174 5.59041H2.18262C0.981445 5.59041 0 4.33351 0 2.79521C0 1.2569 0.981445 0 2.18262 0ZM2.18262 24.4096H27.8174C29.0186 24.4096 30 25.6665 30 27.2048C30 28.7431 29.0186 30 27.8174 30H2.18262C0.981445 30 0 28.7431 0 27.2048C0 25.6665 0.981445 24.4096 2.18262 24.4096ZM2.18262 12.2032H27.8174C29.0186 12.2032 30 13.4601 30 14.9984C30 16.5367 29.0186 17.7936 27.8174 17.7936H2.18262C0.981445 17.7936 0 16.5367 0 14.9984C0 13.4633 0.981445 12.2032 2.18262 12.2032Z" fill="#FFA800"/>
</g>
</g>
</svg>
